<?xml version="1.0" encoding="utf-8"?>
<!-- Generator: Adobe Illustrator 27.2.0, SVG Export Plug-In . SVG Version: 6.00 Build 0)  -->
<svg version="1.1" id="Layer_1" xmlns="http://www.w3.org/2000/svg" xmlns:xlink="http://www.w3.org/1999/xlink" x="0px" y="0px"
	 viewBox="0 0 512 512" style="enable-background:new 0 0 512 512;" xml:space="preserve">
<style type="text/css">
	.st0{fill:#FFFFFF;stroke:#E6E7E8;stroke-miterlimit:10;}
</style>
<path class="st0" d="M206.5,68c-46.83,0-93.67,0-140.5,0c0,46.17,0,92.33,0,138.5c-22,0-44,0-66,0V0h206.5
	C206.5,22.67,206.5,45.33,206.5,68z"/>
<path class="st0" d="M305.5,68c46.83,0,93.67,0,140.5,0c0,46.17,0,92.33,0,138.5c22,0,44,0,66,0V0H305.5
	C305.5,22.67,305.5,45.33,305.5,68z"/>
<path class="st0" d="M206.5,444c-46.83,0-93.67,0-140.5,0c0-46.17,0-92.33,0-138.5c-22,0-44,0-66,0V512h206.5
	C206.5,489.33,206.5,466.67,206.5,444z"/>
<path class="st0" d="M305.5,444c46.83,0,93.67,0,140.5,0c0-46.17,0-92.33,0-138.5c22,0,44,0,66,0V512H305.5
	C305.5,489.33,305.5,466.67,305.5,444z"/>
</svg>
