<?xml version="1.0" encoding="UTF-8"?>
<svg xmlns="http://www.w3.org/2000/svg" version="1.1" viewBox="0 0 512 512">
  <defs>
    <style>
      .cls-1 {
        fill: #e6e7e7;
      }

      .cls-1, .cls-2, .cls-3 {
        stroke: #bdbec0;
        stroke-miterlimit: 10;
      }

      .cls-2 {
        fill: #58595b;
      }

      .cls-3 {
        fill: #fff;
      }
    </style>
  </defs>
  <!-- Generator: Adobe Illustrator 28.6.0, SVG Export Plug-In . SVG Version: 1.2.0 Build 709)  -->
  <g>
    <g id="Layer_1">
      <path class="cls-3" d="M503,230.4c0,4.5-.2,8.9-.5,13.3-2.8,7.5-5.4,12.5-6.4,14.3-5.2,9.9-17.7,32.9-43.5,48.4-4.4,2.7-13.2,7.5-63.4,18-49.1,10.2-59.7,9.4-76.8,20.9-10,6.8-24.9,17-29.9,36.1-.4,1.5-6.3,25.1,7,43.7,4.1,5.8,8.1,8.5,11.9,10.7-14.8,2.3-30,3.5-45.6,3.5-136.4,0-247-93.5-247-208.9,0-115.4,110.6-208.9,247-208.9s247,93.6,247,208.9Z"/>
      <path class="cls-2" d="M511.5,180.5c-5.3-56.9-47.5-93.2-70.5-113C364.2,1.5,271.6,1.9,253.9,2.3c-28.7.6-107.4,3.6-173.9,64.6C73.9,72.4-3.9,146.1.1,256c6,162.3,185.2,254.2,253.8,253.7,12.1,0,40-.3,54.4-19.4,8.6-11.4,12.6-29.9,5.7-43.3-3.4-6.5-7.7-8.6-12.4-11.4-3.8-2.2-7.9-4.9-11.9-10.7-13.2-18.7-7.3-42.2-7-43.7,5-19.1,19.8-29.4,29.9-36.1,17.1-11.5,27.6-10.6,76.8-20.9,50.2-10.4,59-15.3,63.4-18,25.7-15.6,38.2-38.5,43.5-48.4.9-1.8,3.5-6.8,6.4-14.3,5.3-14.1,11.5-36.9,9-63.2ZM87.9,138.8c24.3,0,44.1,19.7,44.1,44.1s-19.7,44.1-44.1,44.1-44.1-19.7-44.1-44.1c0-24.4,19.7-44.1,44.1-44.1ZM44.9,313.4c0-24.4,19.7-44.1,44.1-44.1s44.1,19.7,44.1,44.1-19.7,44.1-44.1,44.1-44.1-19.7-44.1-44.1ZM178.3,132.4c-24.3,0-44.1-19.7-44.1-44.1s19.7-44.1,44.1-44.1,44.1,19.7,44.1,44.1-19.7,44.1-44.1,44.1ZM310.7,118.9c-24.4,0-44.1-19.7-44.1-44.1s19.7-44.1,44.1-44.1,44.1,19.7,44.1,44.1-19.7,44.1-44.1,44.1ZM418.3,192.1c-24.4,0-44.1-19.7-44.1-44.1s19.7-44.1,44.1-44.1,44.1,19.7,44.1,44.1-19.7,44.1-44.1,44.1Z"/>
      <path class="cls-1" d="M337.3,386.6"/>
      <path class="cls-1" d="M541.2,432.6"/>
    </g>
  </g>
</svg>