<?xml version="1.0" encoding="UTF-8"?>
<svg xmlns="http://www.w3.org/2000/svg" version="1.1" viewBox="0 0 512 512">
  <defs>
    <style>
      .cls-1 {
        fill: #aaa;
      }

      .cls-1, .cls-2 {
        stroke: #bcbec0;
        stroke-miterlimit: 10;
        stroke-width: 2px;
      }

      .cls-2 {
        fill: #e6e7e8;
      }
    </style>
  </defs>
  <!-- Generator: Adobe Illustrator 28.6.0, SVG Export Plug-In . SVG Version: 1.2.0 Build 709)  -->
  <g>
    <g id="Layer_1">
      <path class="cls-1" d="M511.4,178.3c-5.3-56.9-47.5-93.2-70.5-113C364.2-.8,271.5-.3,253.9,0c-28.7.6-107.4,3.6-173.9,64.6C73.9,70.2-3.9,143.9.1,253.8c6,162.3,185.2,254.2,253.8,253.7,12.1,0,40-.3,54.4-19.4,8.6-11.4,12.6-29.9,5.7-43.3-6-11.7-15.2-9.1-24.3-22.1-13.2-18.7-7.3-42.2-7-43.7,5-19.1,19.8-29.3,29.9-36.1,17.1-11.5,27.6-10.7,76.8-20.9,50.2-10.4,58.9-15.3,63.4-17.9,25.7-15.6,38.2-38.5,43.5-48.4,2.7-5,19.1-37.1,15.3-77.5ZM87.9,136.6c24.3,0,44.1,19.7,44.1,44.1s-19.7,44.1-44.1,44.1-44.1-19.7-44.1-44.1,19.7-44.1,44.1-44.1ZM89,355.3c-24.3,0-44.1-19.7-44.1-44.1s19.7-44.1,44.1-44.1,44.1,19.7,44.1,44.1-19.7,44.1-44.1,44.1ZM178.3,130.2c-24.3,0-44.1-19.7-44.1-44.1s19.7-44.1,44.1-44.1,44.1,19.7,44.1,44.1-19.7,44.1-44.1,44.1ZM310.7,116.7c-24.4,0-44.1-19.7-44.1-44.1s19.7-44.1,44.1-44.1,44.1,19.7,44.1,44.1-19.7,44.1-44.1,44.1ZM418.3,189.8c-24.4,0-44.1-19.7-44.1-44.1s19.7-44.1,44.1-44.1,44.1,19.7,44.1,44.1-19.7,44.1-44.1,44.1Z"/>
      <path class="cls-2" d="M362.5,384"/>
      <path class="cls-2" d="M566.4,430"/>
    </g>
  </g>
</svg>