<?xml version="1.0" encoding="utf-8"?>
<!-- Generator: Adobe Illustrator 27.2.0, SVG Export Plug-In . SVG Version: 6.00 Build 0)  -->
<svg version="1.1" id="Layer_1" xmlns="http://www.w3.org/2000/svg" xmlns:xlink="http://www.w3.org/1999/xlink" x="0px" y="0px"
	 viewBox="0 0 512 512" style="enable-background:new 0 0 512 512;" xml:space="preserve">
<style type="text/css">
	.st0{fill:#FFFFFF;stroke:#E6E7E8;stroke-miterlimit:10;}
</style>
<path class="st0" d="M512,373.5c-46.83,0-93.67,0-140.5,0c0,46.17,0,92.33,0,138.5c-22,0-44,0-66,0V305.5H512
	C512,328.17,512,350.83,512,373.5z"/>
<path class="st0" d="M0,373.5c46.83,0,93.67,0,140.5,0c0,46.17,0,92.33,0,138.5c22,0,44,0,66,0V305.5H0C0,328.17,0,350.83,0,373.5z"
	/>
<path class="st0" d="M512,138.5c-46.83,0-93.67,0-140.5,0c0-46.17,0-92.33,0-138.5c-22,0-44,0-66,0v206.5H512
	C512,183.83,512,161.17,512,138.5z"/>
<path class="st0" d="M0,138.5c46.83,0,93.67,0,140.5,0c0-46.17,0-92.33,0-138.5c22,0,44,0,66,0v206.5H0C0,183.83,0,161.17,0,138.5z"
	/>
</svg>
